<svg xmlns="http://www.w3.org/2000/svg" viewBox="0 0 365 254"><defs><style>.cls-1{fill:#fff;}.cls-2{fill:none;stroke:#fff;stroke-miterlimit:10;stroke-width:8px;}</style></defs><g id="Layer_2" data-name="Layer 2"><g id="Layer_1-2" data-name="Layer 1"><path class="cls-1" d="M300.5,121c31.15,0,56.5,25.79,56.5,57.5S331.65,236,300.5,236,244,210.21,244,178.5,269.35,121,300.5,121m0-8c-35.62,0-64.5,29.33-64.5,65.5S264.88,244,300.5,244,365,214.67,365,178.5,336.12,113,300.5,113Z"/><path class="cls-2" d="M293.14,121.84c-13.37,19.5-37.92,67.12.23,114.15a8.85,8.85,0,0,0,13.66.24c41.18-48.48,14.84-95.6.57-114.68A8.86,8.86,0,0,0,293.14,121.84Z"/><path class="cls-2" d="M243.93,186.54c19.19,13.59,66.09,38.52,112.4-.22a9.17,9.17,0,0,0,.23-13.88c-47.74-41.82-94.14-15.07-112.92-.58A9.15,9.15,0,0,0,243.93,186.54Z"/><path class="cls-2" d="M301,118V37A33,33,0,0,0,268,4H72A33,33,0,0,0,39,37v70"/><polyline class="cls-2" points="74 173 236.23 173 242.41 173"/><rect class="cls-2" x="4" y="107" width="70" height="143" rx="17.47"/><path class="cls-1" d="M40.39,240.72a6,6,0,1,0-6-6,6.07,6.07,0,0,0,6,6Z"/><line class="cls-2" x1="82" y1="64" x2="235" y2="64"/><line class="cls-2" x1="123" y1="106" x2="251" y2="106"/></g></g></svg>