<svg xmlns="http://www.w3.org/2000/svg" viewBox="0 0 1366.19 125.5"><defs><style>.cls-1{fill:#ff1d25;}</style></defs><g id="Layer_2" data-name="Layer 2"><g id="Layer_1-2" data-name="Layer 1"><path class="cls-1" d="M0,62.23c13.41-5.66,27.12-10.51,40.94-15.07S68.68,38.4,82.73,34.64c3.5-1,7-1.86,10.55-2.78l10.58-2.71,10.61-2.53c3.54-.84,7.07-1.71,10.63-2.46,14.21-3.16,28.46-6.1,42.8-8.6q43-7.63,86.54-11.63T341.67,0L363.5.26c1.82,0,3.64.09,5.46.17l5.45.22,10.91.46c3.63.16,7.27.26,10.9.49l10.89.78L418,3.16c3.63.27,7.26.48,10.88.9L450.58,6.3l5.42.57,5.4.73,10.81,1.47c14.45,1.71,28.76,4.36,43.11,6.67A1006.55,1006.55,0,0,1,683.58,61.18l20.55,7.15,10.27,3.58,2.57.89,2.6.8,5.2,1.59,20.8,6.35,5.2,1.59L756,84.54l10.51,2.81c27.94,7.75,56.39,13.51,84.89,18.71,14.32,2.22,28.59,4.73,43,6.31l10.78,1.34,5.39.67,5.41.51,21.65,2c3.6.38,7.22.55,10.83.78l10.85.67,10.84.68c3.62.2,7.24.26,10.86.4l10.86.36,5.43.18c1.81.06,3.62.13,5.44.12l21.73.11c29-.12,58-1.44,86.85-3.79s57.67-6.09,86.28-10.86,57.06-10.54,85.18-17.73,56-15.25,83.19-25.56l.19.46c-13.41,5.63-27.13,10.47-40.94,15s-27.75,8.74-41.8,12.52c-3.5,1-7,1.87-10.55,2.79l-10.57,2.71-10.61,2.54c-3.54.85-7.07,1.72-10.63,2.47-14.2,3.17-28.46,6.12-42.8,8.63q-43,7.63-86.52,11.81c-29,2.7-58.12,4-87.24,4.32l-21.85-.09c-1.82,0-3.64-.06-5.46-.13l-5.46-.18-10.92-.37c-3.64-.14-7.28-.21-10.92-.41l-10.9-.7-10.9-.71c-3.64-.25-7.27-.44-10.9-.84l-21.74-2.13L910,119.4l-5.41-.7-10.84-1.41c-14.47-1.67-28.81-4.28-43.18-6.6-28.63-5.34-57.15-11.43-85.13-19.52L755,88.24l-5.26-1.46-5.2-1.65-20.78-6.7-5.2-1.67-2.59-.85L713.36,75l-10.25-3.75-20.5-7.49C655.41,53.7,628,43.91,600,36.51l-10.5-2.9-5.25-1.44c-1.74-.5-3.52-.86-5.28-1.3l-21.19-5c-7-1.8-14.19-3.05-21.31-4.46l-10.68-2.09c-3.57-.67-7.11-1.45-10.71-2-14.34-2.22-28.65-4.7-43.09-6.23l-10.8-1.29-5.41-.64-5.42-.48L428.64,6.83c-3.61-.36-7.24-.51-10.86-.71l-10.86-.6-10.86-.61c-3.62-.16-7.25-.2-10.87-.31l-10.88-.28-5.43-.13c-1.82-.05-3.63-.11-5.44-.08l-21.75,0q-43.49.54-86.86,4.18l-21.64,2.11c-7.21.79-14.4,1.73-21.6,2.58-14.37,1.86-28.73,3.92-43,6.35C140,24.22,111.51,30,83.4,37.17S27.35,52.42.19,62.69Z"/></g></g></svg>