<svg id="Layer_3" enable-background="new 0 0 64 64" height="512" viewBox="0 0 64 64" width="512" xmlns="http://www.w3.org/2000/svg"><g><path d="m22 25c-8.822 0-16 7.178-16 16s7.178 16 16 16 16-7.178 16-16-7.178-16-16-16zm13 15v-4.166c.52 1.305.845 2.704.949 4.166zm.949 2c-.104 1.462-.429 2.862-.949 4.166v-4.166zm-2.949-9.632v7.632h-2v-9.708c.737.62 1.404 1.318 2 2.076zm-10-5.317c.681.048 1.349.138 2 .281v12.668h-2zm-2 12.949h-2v-12.668c.651-.143 1.319-.233 2-.281zm-4 0h-2v-11.106c.637-.37 1.305-.688 2-.955zm0 2v12.061c-.695-.267-1.363-.585-2-.955v-11.106zm2 0h2v12.949c-.681-.048-1.349-.138-2-.281zm4 0h2v12.668c-.651.143-1.319.233-2 .281zm4 0h2v11.106c-.637.37-1.305.688-2 .955zm0-2v-12.061c.695.267 1.363.585 2 .955v11.106zm-14-9.708v9.708h-2v-7.632c.596-.758 1.263-1.456 2-2.076zm-4.949 9.708c.104-1.462.429-2.862.949-4.166v4.166zm.949 2v4.166c-.52-1.304-.845-2.704-.949-4.166zm2 7.632v-7.632h2v9.708c-.737-.62-1.404-1.318-2-2.076zm20 2.076v-9.708h2v7.632c-.596.758-1.263 1.456-2 2.076z"/><path d="m12 13c2.206 0 4-1.794 4-4s-1.794-4-4-4-4 1.794-4 4 1.794 4 4 4zm0-6c1.103 0 2 .897 2 2s-.897 2-2 2-2-.897-2-2 .897-2 2-2z"/><path d="m22 13c2.206 0 4-1.794 4-4s-1.794-4-4-4-4 1.794-4 4 1.794 4 4 4zm0-6c1.103 0 2 .897 2 2s-.897 2-2 2-2-.897-2-2 .897-2 2-2z"/><path d="m32 13c2.206 0 4-1.794 4-4s-1.794-4-4-4-4 1.794-4 4 1.794 4 4 4zm0-6c1.103 0 2 .897 2 2s-.897 2-2 2-2-.897-2-2 .897-2 2-2z"/><path d="m8 21h8c.553 0 1-.447 1-1v-4c0-.553-.447-1-1-1h-8c-.553 0-1 .447-1 1v4c0 .553.447 1 1 1zm1-4h6v2h-6z"/><path d="m62 7h-1v-5h-2v5h-1c-.553 0-1 .447-1 1v6c0 1.302.839 2.402 2 2.816v32.184c0 2.757-2.243 5-5 5s-5-2.243-5-5v-26c0-3.309-2.691-6-6-6v-15c0-.553-.447-1-1-1h-40c-.553 0-1 .447-1 1v60c0 .553.447 1 1 1h40c.553 0 1-.447 1-1v-43c2.206 0 4 1.794 4 4v26c0 3.859 3.141 7 7 7s7-3.141 7-7v-32.184c1.161-.414 2-1.514 2-2.816v-6c0-.553-.447-1-1-1zm-21 54h-38v-58h38v14h-4v-1c0-.553-.447-1-1-1h-8c-.553 0-1 .447-1 1v4c0 .553.447 1 1 1h8c.553 0 1-.447 1-1v-1h4zm-6-44v2h-6v-2zm26-3c0 .552-.448 1-1 1s-1-.448-1-1v-5h2z"/></g></svg>